<?xml version="1.0" encoding="UTF-8"?>
<svg xmlns="http://www.w3.org/2000/svg" xmlns:xlink="http://www.w3.org/1999/xlink" width="300px" height="121px" viewBox="0 0 299 121" version="1.1">
<g id="surface1">
<path style=" stroke:none;fill-rule:nonzero;fill: #00ffcc;fill-opacity:1;" d="M 131.746094 40.949219 L 135.894531 40.949219 L 135.894531 49.964844 L 143.007812 49.964844 L 143.007812 40.949219 L 147.15625 40.949219 L 147.15625 63.015625 L 143.003906 63.015625 L 143.003906 53.933594 L 135.894531 53.933594 L 135.894531 63.015625 L 131.742188 63.015625 Z M 162.136719 58.285156 L 154.648438 58.285156 L 153.578125 63.015625 L 149.234375 63.015625 L 154.484375 40.949219 L 162.289062 40.949219 L 167.542969 63.015625 L 163.199219 63.015625 L 162.128906 58.285156 Z M 155.53125 54.316406 L 161.222656 54.316406 L 158.675781 43.027344 L 158.109375 43.027344 Z M 177.398438 59.671875 C 178.191406 59.671875 178.847656 59.554688 179.363281 59.3125 C 179.878906 59.070312 180.277344 58.742188 180.5625 58.335938 C 180.84375 57.921875 181.039062 57.449219 181.140625 56.917969 C 181.246094 56.382812 181.296875 55.832031 181.296875 55.261719 L 181.296875 54.695312 L 185.449219 54.695312 L 185.449219 55.261719 C 185.449219 57.886719 184.761719 59.910156 183.386719 61.328125 C 182.015625 62.75 180.015625 63.457031 177.390625 63.457031 C 174.769531 63.457031 172.882812 62.691406 171.414062 61.15625 C 169.945312 59.621094 169.210938 57.382812 169.210938 54.4375 L 169.210938 49.523438 C 169.210938 48.117188 169.402344 46.851562 169.78125 45.722656 C 170.15625 44.597656 170.703125 43.652344 171.414062 42.886719 C 172.132812 42.113281 173.015625 41.511719 173.992188 41.121094 C 174.996094 40.710938 176.132812 40.507812 177.390625 40.507812 C 178.648438 40.507812 179.847656 40.699219 180.855469 41.078125 C 181.8125 41.421875 182.679688 41.984375 183.386719 42.714844 C 184.085938 43.453125 184.609375 44.335938 184.929688 45.296875 C 185.277344 46.304688 185.449219 47.445312 185.449219 48.703125 L 185.449219 49.273438 L 181.296875 49.273438 L 181.296875 48.703125 C 181.300781 48.179688 181.238281 47.652344 181.113281 47.128906 C 180.992188 46.621094 180.78125 46.136719 180.484375 45.710938 C 180.171875 45.273438 179.761719 44.921875 179.285156 44.683594 C 178.78125 44.421875 178.152344 44.292969 177.398438 44.289062 C 176.707031 44.289062 176.109375 44.421875 175.605469 44.683594 C 175.109375 44.941406 174.679688 45.308594 174.347656 45.757812 C 174.003906 46.230469 173.75 46.765625 173.609375 47.332031 C 173.453125 47.933594 173.371094 48.558594 173.371094 49.207031 L 173.371094 54.753906 C 173.371094 55.46875 173.445312 56.125 173.589844 56.722656 C 173.734375 57.324219 173.964844 57.84375 174.28125 58.28125 C 174.597656 58.722656 175.007812 59.0625 175.523438 59.308594 C 176.035156 59.546875 176.660156 59.667969 177.390625 59.671875 Z M 193.226562 63.015625 L 189.074219 63.015625 L 189.074219 40.949219 L 193.226562 40.949219 L 193.226562 49.996094 L 194.136719 49.996094 L 199.957031 40.949219 L 204.648438 40.949219 L 204.648438 41.136719 L 197.851562 51.699219 L 197.851562 52.265625 L 205.027344 62.828125 L 205.027344 63.015625 L 200.148438 63.015625 L 194.140625 53.96875 L 193.230469 53.96875 L 193.230469 63.015625 Z M 207.285156 40.949219 L 223.144531 40.949219 L 223.144531 44.921875 L 217.292969 44.921875 L 217.292969 63.015625 L 213.140625 63.015625 L 213.140625 44.921875 L 207.289062 44.921875 L 207.289062 40.949219 Z M 226.039062 49.519531 C 226.039062 46.664062 226.753906 44.449219 228.191406 42.871094 C 229.628906 41.296875 231.617188 40.507812 234.152344 40.507812 C 236.6875 40.507812 238.679688 41.296875 240.113281 42.871094 C 241.550781 44.449219 242.265625 46.667969 242.265625 49.523438 L 242.265625 54.4375 C 242.265625 57.378906 241.546875 59.617188 240.113281 61.15625 C 238.675781 62.6875 236.6875 63.457031 234.152344 63.457031 C 231.617188 63.457031 229.625 62.691406 228.191406 61.15625 C 226.753906 59.621094 226.039062 57.382812 226.039062 54.4375 Z M 234.15625 59.671875 C 234.914062 59.671875 235.542969 59.554688 236.042969 59.3125 C 236.546875 59.070312 236.957031 58.730469 237.273438 58.285156 C 237.585938 57.84375 237.804688 57.320312 237.933594 56.710938 C 238.058594 56.101562 238.121094 55.429688 238.121094 54.695312 L 238.121094 49.273438 C 238.121094 48.578125 238.046875 47.929688 237.902344 47.320312 C 237.773438 46.753906 237.539062 46.222656 237.210938 45.742188 C 236.894531 45.296875 236.472656 44.9375 235.984375 44.6875 C 235.480469 44.425781 234.871094 44.292969 234.15625 44.292969 C 233.441406 44.292969 232.835938 44.425781 232.332031 44.6875 C 231.828125 44.953125 231.417969 45.304688 231.101562 45.742188 C 230.785156 46.1875 230.554688 46.710938 230.410156 47.320312 C 230.261719 47.960938 230.1875 48.617188 230.191406 49.273438 L 230.191406 54.695312 C 230.191406 55.429688 230.253906 56.101562 230.378906 56.710938 C 230.507812 57.320312 230.726562 57.847656 231.039062 58.285156 C 231.355469 58.730469 231.765625 59.070312 232.269531 59.3125 C 232.769531 59.554688 233.402344 59.675781 234.15625 59.675781 M 244.914062 59.046875 L 246.988281 59.046875 L 246.988281 44.921875 L 244.914062 44.921875 L 244.914062 40.949219 L 254.574219 40.949219 C 255.621094 40.949219 256.546875 41.097656 257.355469 41.394531 C 258.109375 41.652344 258.804688 42.0625 259.402344 42.59375 C 259.957031 43.09375 260.375 43.699219 260.660156 44.40625 C 260.941406 45.109375 261.082031 45.871094 261.082031 46.691406 L 261.082031 47.066406 C 261.082031 48.328125 260.734375 49.335938 260.03125 50.089844 C 259.324219 50.847656 258.441406 51.375 257.371094 51.667969 L 257.371094 52.238281 C 258.441406 52.53125 259.328125 53.0625 260.03125 53.832031 C 260.734375 54.597656 261.082031 55.613281 261.082031 56.871094 L 261.082031 57.25 C 261.082031 58.066406 260.941406 58.828125 260.660156 59.535156 C 260.375 60.238281 259.957031 60.847656 259.402344 61.363281 C 258.84375 61.878906 258.164062 62.285156 257.355469 62.578125 C 256.546875 62.871094 255.621094 63.019531 254.574219 63.019531 L 244.914062 63.019531 L 244.914062 59.046875 M 251.148438 49.964844 L 254.167969 49.964844 C 255.046875 49.964844 255.761719 49.78125 256.304688 49.414062 C 256.851562 49.042969 257.125 48.417969 257.125 47.539062 L 257.125 47.351562 C 257.125 46.464844 256.851562 45.847656 256.304688 45.476562 C 255.761719 45.109375 255.046875 44.925781 254.167969 44.925781 L 251.148438 44.925781 L 251.148438 49.96875 Z M 251.148438 59.046875 L 254.167969 59.046875 C 255.046875 59.046875 255.761719 58.855469 256.304688 58.476562 C 256.851562 58.097656 257.125 57.46875 257.125 56.582031 L 257.125 56.394531 C 257.125 55.511719 256.851562 54.878906 256.304688 54.503906 C 255.761719 54.125 255.046875 53.9375 254.167969 53.933594 L 251.148438 53.933594 L 251.148438 59.042969 M 264.988281 40.949219 L 278.894531 40.949219 L 278.894531 44.921875 L 269.140625 44.921875 L 269.140625 49.964844 L 278.519531 49.964844 L 278.519531 53.933594 L 269.140625 53.933594 L 269.140625 59.039062 L 279.269531 59.039062 L 279.269531 63.011719 L 264.984375 63.011719 L 264.984375 40.949219 Z M 298.429688 63.015625 L 294.28125 63.015625 L 294.28125 56.398438 C 294.28125 55.894531 294.148438 55.484375 293.886719 55.167969 C 293.625 54.851562 293.1875 54.695312 292.582031 54.695312 L 287.800781 54.695312 L 287.800781 63.015625 L 283.648438 63.015625 L 283.648438 40.949219 L 292.082031 40.949219 C 293.214844 40.949219 294.210938 41.105469 295.070312 41.421875 C 295.933594 41.738281 296.648438 42.175781 297.226562 42.730469 C 297.804688 43.289062 298.242188 43.933594 298.542969 44.667969 C 298.847656 45.40625 299 46.195312 299 47.035156 L 299 47.792969 C 299 48.695312 298.757812 49.542969 298.273438 50.332031 C 297.789062 51.117188 297.046875 51.722656 296.039062 52.144531 L 296.039062 52.714844 C 296.773438 52.796875 297.355469 53.078125 297.789062 53.5625 C 298.21875 54.042969 298.433594 54.65625 298.4375 55.390625 L 298.4375 63.015625 Z M 287.800781 50.722656 L 291.761719 50.722656 C 292.769531 50.722656 293.539062 50.488281 294.0625 50.011719 C 294.585938 49.539062 294.847656 48.875 294.847656 48.011719 L 294.847656 47.636719 C 294.847656 46.902344 294.585938 46.265625 294.0625 45.726562 C 293.539062 45.191406 292.773438 44.921875 291.761719 44.921875 L 287.800781 44.921875 Z M 131.746094 70.894531 L 145.839844 70.894531 L 145.839844 74.863281 L 135.902344 74.863281 L 135.902344 79.910156 L 145.652344 79.910156 L 145.652344 83.878906 L 135.902344 83.878906 L 135.902344 92.960938 L 131.75 92.960938 L 131.75 70.894531 Z M 150.496094 70.894531 L 164.402344 70.894531 L 164.402344 74.863281 L 154.648438 74.863281 L 154.648438 79.910156 L 164.027344 79.910156 L 164.027344 83.878906 L 154.648438 83.878906 L 154.648438 88.984375 L 164.777344 88.984375 L 164.777344 92.953125 L 150.492188 92.953125 L 150.492188 70.890625 Z M 180.257812 77.640625 C 180.257812 76.757812 179.917969 75.988281 179.238281 75.339844 C 178.554688 74.6875 177.59375 74.359375 176.355469 74.363281 C 175.308594 74.363281 174.480469 74.578125 173.871094 75.011719 C 173.285156 75.398438 172.941406 76.058594 172.957031 76.761719 C 172.957031 77.136719 173.03125 77.480469 173.175781 77.785156 C 173.324219 78.089844 173.578125 78.363281 173.945312 78.605469 C 174.3125 78.84375 174.792969 79.0625 175.390625 79.253906 C 175.988281 79.441406 176.75 79.617188 177.671875 79.785156 C 179.980469 80.207031 181.742188 80.910156 182.960938 81.894531 C 184.175781 82.882812 184.785156 84.34375 184.785156 86.277344 L 184.785156 86.65625 C 184.785156 87.683594 184.601562 88.617188 184.234375 89.445312 C 183.875 90.265625 183.332031 90.996094 182.644531 91.570312 C 181.90625 92.1875 181.046875 92.648438 180.128906 92.929688 C 179.140625 93.246094 178.03125 93.402344 176.792969 93.402344 C 175.347656 93.402344 174.074219 93.195312 172.972656 92.789062 C 171.867188 92.378906 170.953125 91.808594 170.21875 91.085938 C 169.484375 90.363281 168.917969 89.492188 168.546875 88.535156 C 168.164062 87.511719 167.972656 86.425781 167.980469 85.332031 L 167.980469 84.386719 L 172.132812 84.386719 L 172.132812 85.144531 C 172.132812 86.464844 172.515625 87.527344 173.28125 88.316406 C 174.046875 89.101562 175.234375 89.496094 176.851562 89.496094 C 178.109375 89.496094 179.042969 89.222656 179.652344 88.679688 C 180.257812 88.128906 180.5625 87.480469 180.566406 86.726562 C 180.566406 86.367188 180.503906 86.023438 180.375 85.699219 C 180.234375 85.355469 180.007812 85.050781 179.714844 84.816406 C 179.402344 84.554688 178.972656 84.316406 178.429688 84.109375 C 177.753906 83.863281 177.058594 83.683594 176.351562 83.574219 C 175.320312 83.402344 174.300781 83.15625 173.300781 82.835938 C 172.441406 82.558594 171.628906 82.148438 170.894531 81.621094 C 170.222656 81.125 169.675781 80.476562 169.304688 79.730469 C 168.925781 78.972656 168.738281 78.046875 168.734375 76.953125 L 168.734375 76.765625 C 168.734375 75.863281 168.917969 75.027344 169.285156 74.261719 C 169.652344 73.496094 170.167969 72.828125 170.828125 72.261719 C 171.488281 71.695312 172.285156 71.253906 173.21875 70.9375 C 174.152344 70.625 175.195312 70.464844 176.347656 70.464844 C 177.648438 70.464844 178.804688 70.648438 179.808594 71.019531 C 180.816406 71.386719 181.660156 71.882812 182.34375 72.515625 C 183.023438 73.144531 183.539062 73.871094 183.886719 74.691406 C 184.230469 75.511719 184.40625 76.371094 184.40625 77.273438 L 184.40625 78.40625 L 180.253906 78.40625 L 180.253906 77.648438 Z M 187.496094 70.894531 L 203.355469 70.894531 L 203.355469 74.863281 L 197.503906 74.863281 L 197.503906 92.960938 L 193.351562 92.960938 L 193.351562 74.863281 L 187.5 74.863281 L 187.5 70.894531 Z M 66.203125 80.15625 L 26.875 80.15625 L 26.875 93.289062 L 66.203125 93.289062 Z M 92.378906 40.785156 L 79.269531 40.785156 L 79.269531 93.316406 L 92.378906 93.316406 Z M 53.3125 27.625 L 40.203125 27.625 L 40.203125 80.15625 L 53.3125 80.15625 Z M 40.203125 40.757812 L 27.09375 40.757812 L 27.09375 53.890625 L 40.203125 53.890625 Z M 79.269531 53.917969 L 66.160156 53.917969 L 66.160156 67.050781 L 79.269531 67.050781 Z M 79.269531 53.917969 "/>
<path style=" stroke:none;fill-rule:nonzero;fill: #00ffcc;fill-opacity:1;" d="M 105.488281 80.183594 L 92.378906 80.183594 L 92.378906 93.316406 L 105.488281 93.316406 Z M 26.960938 120.023438 L 13.546875 106.800781 L 13.546875 14.707031 L 105.464844 14.707031 L 118.882812 27.929688 L 118.882812 0.949219 L 0 0.949219 L 0 120.050781 Z M 26.960938 120.023438 "/>
</g>
</svg>
